<svg class="_bgm_play_icon" viewBox="0 0 1024 1024" version="1.1" xmlns="http://www.w3.org/2000/svg" xmlns:xlink="http://www.w3.org/1999/xlink" width="200" height="200">
<defs>
<style type="text/css">
._bgm_play_icon {
    width: 45px;
    height: 45px;
    position: absolute;
    top: 1vmin;
    left: 1vmin;
    cursor: pointer;
}
._bgm_play_icon path{
	fill: var(--theme-color, #42b983);
}
</style>
</defs>
<path d="M534.528 114.688c6.144 38.912 6.144 90.112 49.152 139.264 32.768 38.912 67.584 71.68 92.16 104.448 32.768 40.96 55.296 92.16 55.296 143.36 0 81.92-40.96 165.888-67.584 210.944h-12.288c18.432-43.008 57.344-114.688 55.296-190.464-2.048-45.056-18.432-86.016-45.056-120.832-30.72-38.912-81.92-69.632-126.976-73.728v452.608c0 36.864-22.528 67.584-53.248 92.16-30.72 24.576-69.632 38.912-106.496 38.912-22.528 0-43.008-6.144-57.344-18.432-16.384-12.288-24.576-30.72-24.576-51.2 0-32.768 22.528-65.536 53.248-90.112 30.72-24.576 69.632-40.96 100.352-40.96 28.672 0 51.2 4.096 67.584 18.432v-614.4h20.48z m0 0"></path>
<path d="M512 20.48c270.336 0 491.52 221.184 491.52 491.52S782.336 1003.52 512 1003.52 20.48 782.336 20.48 512 241.664 20.48 512 20.48m0-20.48C229.376 0 0 229.376 0 512s229.376 512 512 512 512-229.376 512-512S794.624 0 512 0z"></path>
</svg>